<svg xmlns="http://www.w3.org/2000/svg" xmlns:se="http://svg-edit.googlecode.com" xmlns:xlink="http://www.w3.org/1999/xlink" xmlns:dc="http://purl.org/dc/elements/1.1/" xmlns:cc="http://creativecommons.org/ns#" xmlns:rdf="http://www.w3.org/1999/02/22-rdf-syntax-ns#" xmlns:inkscape="http://www.inkscape.org/namespaces/inkscape" width="197.6242774056641" height="182" style="">
                                    <title>my vector image</title>
                                    <!-- Created with Vector Paint - http://www.vectorpaint.yaks.com/ https://chrome.google.com/webstore/detail/hnbpdiengicdefcjecjbnjnoifekhgdo -->
                                    <rect id="backgroundrect" width="100%" height="100%" x="0" y="0" fill="#FFFFFF" stroke="none" class="" style="" opacity="0"/>
                                <g style="" class="currentLayer"><title>Layer 1</title><path fill="#000000" fill-opacity="1" stroke="none" stroke-opacity="1" stroke-width="1" stroke-dasharray="none" stroke-linejoin="miter" stroke-linecap="butt" stroke-dashoffset="" fill-rule="nonzero" opacity="1" marker-start="" marker-mid="" marker-end="" d="M4.1965292096138,62.54335284233093 C4.1965292096138,54.80854621249668 10.685479485856888,48.54335284233093 18.6965292096138,48.54335284233093 C26.707578933370712,48.54335284233093 33.1965292096138,54.80854621249668 33.1965292096138,62.54335284233093 C33.1965292096138,70.27815947216519 26.707578933370712,76.54335284233093 18.6965292096138,76.54335284233093 C10.685479485856888,76.54335284233093 4.1965292096138,70.27815947216519 4.1965292096138,62.54335284233093 z" id="svg_1" class=""/><path fill="#000000" fill-opacity="1" stroke="none" stroke-opacity="1" stroke-width="1" stroke-dasharray="none" stroke-linejoin="miter" stroke-linecap="butt" stroke-dashoffset="" fill-rule="nonzero" opacity="1" marker-start="" marker-mid="" marker-end="" d="M60.61271321773529,61.156071186065674 C60.61271321773529,53.42126455623142 67.10166349397832,47.156071186065674 75.11271321773529,47.156071186065674 C83.12376294149226,47.156071186065674 89.61271321773529,53.42126455623142 89.61271321773529,61.156071186065674 C89.61271321773529,68.89087781589993 83.12376294149226,75.15607118606567 75.11271321773529,75.15607118606567 C67.10166349397832,75.15607118606567 60.61271321773529,68.89087781589993 60.61271321773529,61.156071186065674 z" class="" id="svg_10"/><path fill="#000000" fill-opacity="1" stroke="none" stroke-opacity="1" stroke-width="1" stroke-dasharray="none" stroke-linejoin="miter" stroke-linecap="butt" stroke-dashoffset="" fill-rule="nonzero" opacity="1" marker-start="" marker-mid="" marker-end="" d="M108.01155680418015,68.6705213189125 C108.01155680418015,60.93571468907828 114.50050708042323,54.670521318912506 122.51155680418015,54.670521318912506 C130.52260652793706,54.670521318912506 137.01155680418015,60.93571468907828 137.01155680418015,68.6705213189125 C137.01155680418015,76.40532794874673 130.52260652793706,82.6705213189125 122.51155680418015,82.6705213189125 C114.50050708042323,82.6705213189125 108.01155680418015,76.40532794874673 108.01155680418015,68.6705213189125 z" class="" id="svg_5"/><path fill="#000000" fill-opacity="1" stroke="none" stroke-opacity="1" stroke-width="1" stroke-dasharray="none" stroke-linejoin="miter" stroke-linecap="butt" stroke-dashoffset="" fill-rule="nonzero" opacity="1" marker-start="" marker-mid="" marker-end="" d="M160.9595330953598,17.572259068489075 C160.9595330953598,9.83745243865485 167.4484833716029,3.5722590684890747 175.4595330953598,3.5722590684890747 C183.47058281911671,3.5722590684890747 189.9595330953598,9.83745243865485 189.9595330953598,17.572259068489075 C189.9595330953598,25.3070656983233 183.47058281911671,31.572259068489075 175.4595330953598,31.572259068489075 C167.4484833716029,31.572259068489075 160.9595330953598,25.3070656983233 160.9595330953598,17.572259068489075 z" class="" id="svg_20"/><path fill="#000000" fill-opacity="1" stroke="none" stroke-opacity="1" stroke-width="1" stroke-dasharray="none" stroke-linejoin="miter" stroke-linecap="butt" stroke-dashoffset="" fill-rule="nonzero" opacity="1" marker-start="" marker-mid="" marker-end="" d="M58.069363713264465,116.41619062423706 C58.069363713264465,108.68138399440284 64.55831398950755,102.41619062423706 72.56936371326447,102.41619062423706 C80.58041343702138,102.41619062423706 87.06936371326447,108.68138399440284 87.06936371326447,116.41619062423706 C87.06936371326447,124.15099725407129 80.58041343702138,130.41619062423706 72.56936371326447,130.41619062423706 C64.55831398950755,130.41619062423706 58.069363713264465,124.15099725407129 58.069363713264465,116.41619062423706 z" class="" id="svg_19"/><path fill="#ffffff" fill-opacity="1" stroke="#000000" stroke-opacity="1" stroke-width="1" stroke-dasharray="none" stroke-linejoin="miter" stroke-linecap="butt" stroke-dashoffset="" fill-rule="nonzero" opacity="1" marker-start="" marker-mid="" marker-end="" d="M61.06936329603195,20.17341321706772 C61.06936329603195,12.438606587233465 67.11079976012036,6.1734132170677185 74.56936329603195,6.1734132170677185 C82.02792683194355,6.1734132170677185 88.06936329603195,12.438606587233465 88.06936329603195,20.17341321706772 C88.06936329603195,27.90821984690197 82.02792683194355,34.17341321706772 74.56936329603195,34.17341321706772 C67.11079976012036,34.17341321706772 61.06936329603195,27.90821984690197 61.06936329603195,20.17341321706772 z" id="svg_6" class=""/><path fill="#ffffff" fill-opacity="1" stroke="#000000" stroke-opacity="1" stroke-width="1" stroke-dasharray="none" stroke-linejoin="miter" stroke-linecap="butt" stroke-dashoffset="" fill-rule="nonzero" opacity="1" marker-start="" marker-mid="" marker-end="" d="M110.5491304397583,19.364164412021637 C110.5491304397583,11.629357782187384 116.5905669038467,5.364164412021637 124.0491304397583,5.364164412021637 C131.5076939756699,5.364164412021637 137.5491304397583,11.629357782187384 137.5491304397583,19.364164412021637 C137.5491304397583,27.09897104185589 131.5076939756699,33.36416441202164 124.0491304397583,33.36416441202164 C116.5905669038467,33.36416441202164 110.5491304397583,27.09897104185589 110.5491304397583,19.364164412021637 z" class="" id="svg_9"/><path fill="#ffffff" fill-opacity="1" stroke="#000000" stroke-opacity="1" stroke-width="1" stroke-dasharray="none" stroke-linejoin="miter" stroke-linecap="butt" stroke-dashoffset="" fill-rule="nonzero" opacity="1" marker-start="" marker-mid="" marker-end="" d="M161.1849668622017,68.84393066167831 C161.1849668622017,61.10912403184406 167.2264033262901,54.843930661678314 174.6849668622017,54.843930661678314 C182.14353039811328,54.843930661678314 188.1849668622017,61.10912403184406 188.1849668622017,68.84393066167831 C188.1849668622017,76.57873729151257 182.14353039811328,82.84393066167831 174.6849668622017,82.84393066167831 C167.2264033262901,82.84393066167831 161.1849668622017,76.57873729151257 161.1849668622017,68.84393066167831 z" class="" id="svg_11"/><path fill="#ffffff" fill-opacity="1" stroke="#000000" stroke-opacity="1" stroke-width="1" stroke-dasharray="none" stroke-linejoin="miter" stroke-linecap="butt" stroke-dashoffset="" fill-rule="nonzero" opacity="1" marker-start="" marker-mid="" marker-end="" d="M111.24276316165924,160.52023196220398 C111.24276316165924,152.78542533236973 117.28419962574765,146.52023196220398 124.74276316165924,146.52023196220398 C132.20132669757083,146.52023196220398 138.24276316165924,152.78542533236973 138.24276316165924,160.52023196220398 C138.24276316165924,168.25503859203823 132.20132669757083,174.52023196220398 124.74276316165924,174.52023196220398 C117.28419962574765,174.52023196220398 111.24276316165924,168.25503859203823 111.24276316165924,160.52023196220398 z" class="" id="svg_12"/><path fill="#ffffff" fill-opacity="1" stroke="#000000" stroke-opacity="1" stroke-width="1" stroke-dasharray="none" stroke-linejoin="miter" stroke-linecap="butt" stroke-dashoffset="" fill-rule="nonzero" opacity="1" marker-start="" marker-mid="" marker-end="" d="M159.5664605498314,116.35838711261749 C159.5664605498314,108.62358048278324 165.6078970139198,102.35838711261749 173.0664605498314,102.35838711261749 C180.52502408574298,102.35838711261749 186.5664605498314,108.62358048278324 186.5664605498314,116.35838711261749 C186.5664605498314,124.09319374245175 180.52502408574298,130.3583871126175 173.0664605498314,130.3583871126175 C165.6078970139198,130.3583871126175 159.5664605498314,124.09319374245175 159.5664605498314,116.35838711261749 z" class="" id="svg_13"/><path fill="#ffffff" fill-opacity="1" stroke="#000000" stroke-opacity="1" stroke-width="1" stroke-dasharray="none" stroke-linejoin="miter" stroke-linecap="butt" stroke-dashoffset="" fill-rule="nonzero" opacity="1" marker-start="" marker-mid="" marker-end="" d="M4.999989151954651,114.97110688686371 C4.999989151954651,107.23630025702946 11.041425616043057,100.97110688686371 18.49998915195465,100.97110688686371 C25.958552687866245,100.97110688686371 31.99998915195465,107.23630025702946 31.99998915195465,114.97110688686371 C31.99998915195465,122.70591351669796 25.958552687866245,128.9711068868637 18.49998915195465,128.9711068868637 C11.041425616043057,128.9711068868637 4.999989151954651,122.70591351669796 4.999989151954651,114.97110688686371 z" class="" id="svg_14"/><path fill="#ffffff" fill-opacity="1" stroke="#000000" stroke-opacity="1" stroke-width="1" stroke-dasharray="none" stroke-linejoin="miter" stroke-linecap="butt" stroke-dashoffset="" fill-rule="nonzero" opacity="1" marker-start="" marker-mid="" marker-end="" d="M8.815000712871552,21.098282396793365 C8.815000712871552,13.363475766959112 14.856437176959957,7.0982823967933655 22.31500071287155,7.0982823967933655 C29.773564248783146,7.0982823967933655 35.81500071287155,13.363475766959112 35.81500071287155,21.098282396793365 C35.81500071287155,28.83308902662762 29.773564248783146,35.098282396793365 22.31500071287155,35.098282396793365 C14.856437176959957,35.098282396793365 8.815000712871552,28.83308902662762 8.815000712871552,21.098282396793365 z" class="" id="svg_15"/><path fill="#ffffff" fill-opacity="1" stroke="#000000" stroke-opacity="1" stroke-width="1" stroke-dasharray="none" stroke-linejoin="miter" stroke-linecap="butt" stroke-dashoffset="" fill-rule="nonzero" opacity="1" marker-start="" marker-mid="" marker-end="" d="M7.427717983722687,161.9075243473053 C7.427717983722687,154.17271771747107 13.469154447811093,147.9075243473053 20.927717983722687,147.9075243473053 C28.38628151963428,147.9075243473053 34.42771798372269,154.17271771747107 34.42771798372269,161.9075243473053 C34.42771798372269,169.64233097713952 28.38628151963428,175.9075243473053 20.927717983722687,175.9075243473053 C13.469154447811093,175.9075243473053 7.427717983722687,169.64233097713952 7.427717983722687,161.9075243473053 z" class="" id="svg_21"/><path fill="#ffffff" fill-opacity="1" stroke="#000000" stroke-opacity="1" stroke-width="1" stroke-dasharray="none" stroke-linejoin="miter" stroke-linecap="butt" stroke-dashoffset="" fill-rule="nonzero" opacity="1" marker-start="" marker-mid="" marker-end="" d="M58.87281388044357,159.5953825712204 C58.87281388044357,151.86057594138617 64.91425034453198,145.5953825712204 72.37281388044357,145.5953825712204 C79.83137741635517,145.5953825712204 85.87281388044357,151.86057594138617 85.87281388044357,159.5953825712204 C85.87281388044357,167.33018920105462 79.83137741635517,173.5953825712204 72.37281388044357,173.5953825712204 C64.91425034453198,173.5953825712204 58.87281388044357,167.33018920105462 58.87281388044357,159.5953825712204 z" class="" id="svg_16"/><path fill="#ffffff" fill-opacity="1" stroke="#000000" stroke-opacity="1" stroke-width="1" stroke-dasharray="none" stroke-linejoin="miter" stroke-linecap="butt" stroke-dashoffset="" fill-rule="nonzero" opacity="1" marker-start="" marker-mid="" marker-end="" d="M110.08667343854904,114.27746438980103 C110.08667343854904,106.54265775996677 116.12810990263745,100.27746438980103 123.58667343854904,100.27746438980103 C131.04523697446064,100.27746438980103 137.08667343854904,106.54265775996677 137.08667343854904,114.27746438980103 C137.08667343854904,122.01227101963528 131.04523697446064,128.27746438980103 123.58667343854904,128.27746438980103 C116.12810990263745,128.27746438980103 110.08667343854904,122.01227101963528 110.08667343854904,114.27746438980103 z" class="" id="svg_17"/><path fill="#ffffff" fill-opacity="1" stroke="#000000" stroke-opacity="1" stroke-width="1" stroke-dasharray="none" stroke-linejoin="miter" stroke-linecap="butt" stroke-dashoffset="" fill-rule="nonzero" opacity="1" marker-start="" marker-mid="" marker-end="" d="M158.988394677639,159.71099984645844 C158.988394677639,151.9761932166242 165.0298311417274,145.71099984645844 172.488394677639,145.71099984645844 C179.9469582135506,145.71099984645844 185.988394677639,151.9761932166242 185.988394677639,159.71099984645844 C185.988394677639,167.44580647629266 179.9469582135506,173.71099984645844 172.488394677639,173.71099984645844 C165.0298311417274,173.71099984645844 158.988394677639,167.44580647629266 158.988394677639,159.71099984645844 z" class="" id="svg_18"/><path fill="#ffffff" stroke="#000000" stroke-dashoffset="" fill-rule="nonzero" marker-start="" marker-mid="" marker-end="" id="svg_4" d="M75.58269623807644,83.15095834914916 C74.60876976008876,82.08734994169271 76.57463735422289,80.28749498032678 77.45836601184698,81.51353273152148 C78.21267932173436,82.57618111360694 76.5359833035833,83.9272464962662 75.58269623807644,83.15095834914916 zM78.19056852497039,85.57159774145114 C77.39470296039258,84.40058281337267 79.57240079467834,83.14944995366037 80.2612866005025,84.31919668142632 C81.07898802145417,85.54238834639006 78.8693230795734,86.93935819946628 78.19056852497039,85.57159774145114 zM81.15944811791314,88.50036927207918 C80.16515943382603,87.82730462394457 81.15327857642535,86.27476231959278 82.18282685480591,86.41322804025955 C83.61292929080957,86.63150427295008 83.23071834021601,89.01470645243654 81.83590571173465,88.8978718935129 C81.5651453225484,88.86646977331102 81.32391836531212,88.71271313713476 81.15944811791314,88.50036927207918 zM83.64281017489901,91.08635131878589 C82.81130810599012,90.02915415865559 84.72871594581284,88.64065231850904 85.53476034744796,89.64731709677801 C86.41148180179317,90.76711531334232 84.45485039195188,92.24519560264551 83.64281017489901,91.08635131878589 zM78.8204871705534,91.14432295311198 C77.89611643178125,90.26930023760235 79.25294121133595,88.85546460442316 80.2737488023879,89.22451467219526 C81.75698875597857,89.6992898943632 80.65424741819237,91.98197643557131 79.3305393596197,91.46338749847706 C79.14844875670985,91.3771332599089 78.98538493515065,91.25848288588423 78.8204871705534,91.14432295311198 zM74.88871950306253,91.14432295311198 C73.80227820265463,90.12966979693215 75.78735990016338,88.46286407949682 76.71718110555838,89.52427825115214 C77.66056276373513,90.63063686785299 75.89022461704366,92.20042337300933 74.88871950306253,91.14432295311198 zM71.0049969133072,91.08635131878589 C70.17298197482478,90.02946308892763 72.09143745838503,88.64017192815774 72.89667667745061,89.6477287520315 C73.77090931700582,90.76930879381351 71.81973290577258,92.2446827330725 71.0049969133072,91.08635131878589 zM67.3060221800065,91.14432295311198 C66.219581634929,90.12966979693215 68.20466408776775,88.46286407949682 69.13448604849327,89.52427825115214 C70.07786544067915,90.63063686785299 68.30752804931774,92.20042337300933 67.3060221800065,91.14432295311198 zM63.422625893130316,91.08724336439164 C62.46928670980293,89.83981238063686 65.04762405408576,88.47846241461556 65.47748957642102,90.04334682326657 C65.79530329407953,91.09060156486282 64.07412660395772,92.00254560229368 63.422625893130316,91.08724336439164 zM81.0019888504479,93.86006402304244 C80.0756127085599,92.89889054927417 81.72328967499573,91.21974272754034 82.71188920794634,92.09459398297233 C83.93274841158438,92.96611800649208 82.31508828877156,94.98541543120982 81.19422807718541,94.053485342388 C81.13101218152997,93.98817793591235 81.06623501723391,93.92437741426315 81.0019888504479,93.86006402304244 zM78.19056852497039,96.24354038758753 C77.40965095574518,95.12963979344295 79.43942028584712,93.90706447836288 80.17263267617147,94.95164685979873 C81.12905814090436,96.06126095199161 79.20808438465605,97.57307733348341 78.32349691598023,96.46455922619569 L78.19056852497039,96.24354038758753 zM75.67582323105228,99.20782832495874 C74.83211879403086,98.43599813987123 75.99103256831859,97.22038017624007 76.90947245011654,97.4271361044785 C78.30743631844712,97.78778538375661 77.4264835012948,100.02978074731763 76.14424007904677,99.60430294125473 C75.94555788109301,99.53604445757489 75.78434310918595,99.38438159821061 75.67582323105228,99.20782832495874 z" style="color: rgb(0, 0, 0);" class="" transform="rotate(87.51034545898438 74.48438262939453,90.37969970703125) "/><path fill="#ffffff" stroke="#000000" stroke-dashoffset="" fill-rule="nonzero" marker-start="" marker-mid="" marker-end="" d="M154.54223243287777,37.83303986970657 C153.5683059548901,36.76943146225011 155.53417354902422,34.96957650088419 156.4179022066483,36.19561425207888 C157.1722155165357,37.25826263416434 155.49551949838462,38.60932801682361 154.54223243287777,37.83303986970657 zM157.15010471977172,40.253679262008546 C156.3542391551939,39.08266433393007 158.53193698947968,37.83153147421777 159.22082279530383,39.00127820198372 C160.0385242162555,40.22446986694746 157.82885927437474,41.62143972002369 157.15010471977172,40.253679262008546 zM160.11898431271447,43.18245079263659 C159.12469562862736,42.509386144501974 160.11281477122668,40.956843840150185 161.14236304960724,41.09530956081696 C162.5724654856109,41.313585793507485 162.19025453501735,43.696787972993945 160.79544190653598,43.5799534140703 C160.52468151734973,43.54855129386843 160.28345456011346,43.39479465769216 160.11898431271447,43.18245079263659 zM162.60234636970034,45.76843283934329 C161.77084430079145,44.71123567921299 163.68825214061417,43.322733839066444 164.4942965422493,44.329398617335414 C165.3710179965945,45.44919683389972 163.4143865867532,46.92727712320291 162.60234636970034,45.76843283934329 zM157.78002336535474,45.826404473669385 C156.85565262658258,44.951381758159755 158.21247740613728,43.537546124980565 159.23328499718923,43.90659619275266 C160.7165249507799,44.38137141492061 159.6137836129937,46.664057956128715 158.29007555442104,46.145469019034465 C158.10798495151118,46.059214780466306 157.94492112995198,45.94056440644164 157.78002336535474,45.826404473669385 zM153.84825569786386,45.826404473669385 C152.76181439745596,44.81175131748955 154.7468960949647,43.14494560005423 155.6767173003597,44.20635977170954 C156.62009895853646,45.31271838841039 154.849760811845,46.88250489356673 153.84825569786386,45.826404473669385 zM149.96453310810853,45.76843283934329 C149.1325181696261,44.71154460948503 151.05097365318636,43.322253448715145 151.85621287225194,44.3298102725889 C152.73044551180715,45.45139031437091 150.7792691005739,46.9267642536299 149.96453310810853,45.76843283934329 zM146.26555837480782,45.826404473669385 C145.17911782973033,44.81175131748955 147.16420028256908,43.14494560005423 148.0940222432946,44.20635977170954 C149.03740163548048,45.31271838841039 147.26706424411907,46.88250489356673 146.26555837480782,45.826404473669385 zM142.38216208793165,45.76932488494904 C141.42882290460426,44.52189390119426 144.0071602488871,43.16054393517297 144.43702577122235,44.72542834382398 C144.75483948888086,45.772683085420226 143.03366279875905,46.68462712285108 142.38216208793165,45.76932488494904 zM159.96152504524923,48.542145543599844 C159.03514890336123,47.580972069831574 160.68282586979706,45.90182424809774 161.67142540274767,46.77667550352973 C162.89228460638572,47.648199527049485 161.2746244835729,49.66749695176722 160.15376427198674,48.735566862945404 C160.0905483763313,48.67025945646975 160.02577121203524,48.60645893482055 159.96152504524923,48.542145543599844 zM157.15010471977172,50.92562190814493 C156.3691871505465,49.81172131400035 158.39895648064845,48.58914599892029 159.1321688709728,49.63372838035613 C160.0885943357057,50.74334247254899 158.16762057945738,52.255158854040815 157.28303311078156,51.146640746753064 L157.15010471977172,50.92562190814493 zM154.6353594258536,53.88990984551617 C153.7916549888322,53.118079660428634 154.95056876311992,51.902461696797445 155.86900864491787,52.10921762503591 C157.26697251324845,52.46986690431402 156.38601969609613,54.71186226787506 155.1037762738481,54.28638446181213 C154.90509407589434,54.21812597813232 154.74387930398728,54.06646311876801 154.6353594258536,53.88990984551617 z" style="color: rgb(0, 0, 0);" class="" id="svg_28" transform="rotate(-42.24083709716797 153.44390869140625,45.061779022216804) "/><path fill="#ffffff" stroke="#000000" stroke-dashoffset="" fill-rule="nonzero" marker-start="" marker-mid="" marker-end="" d="M47.19301308322367,53.782583789495234 C46.24550082079717,52.71897538203878 48.158051402230825,50.919120420672854 49.01781213230837,52.14515817186755 C49.751667435540874,53.207806553953006 48.12044570221008,54.55887193661228 47.19301308322367,53.782583789495234 zM49.73015631376794,56.20322318179721 C48.955875709713965,55.032208253718736 51.07451140602316,53.781075394006436 51.744713688415786,54.95082212177239 C52.54023793061128,56.174013786736126 50.39050211830241,57.570983639812354 49.73015631376794,56.20322318179721 zM52.6185158394206,59.131994712425254 C51.65119362171993,58.45893006429064 52.61251362431982,56.90638775993885 53.61413914798487,57.044853480605624 C55.0054552537337,57.26312971329615 54.63361038586507,59.64633189278261 53.27662697988547,59.52949733385897 C53.013209982060935,59.498095213657095 52.77852542919667,59.344338577480826 52.6185158394206,59.131994712425254 zM55.03452572745712,61.71797675913196 C54.22557512971585,60.66077959900166 56.090980251526,59.27227775885511 56.87516362868146,60.27894253712408 C57.728107200398384,61.39874075368839 55.8245423053315,62.87682104299158 55.03452572745712,61.71797675913196 zM50.34299070579949,61.77594839345805 C49.443690163293915,60.90092567794842 50.763716002665824,59.48709004476923 51.75683789837427,59.856140112541325 C53.19985035969669,60.330915334709275 52.12701687231075,62.61360187591738 50.83920958324119,62.09501293882313 C50.662057526048734,62.00875870025497 50.5034162179238,61.890108326230305 50.34299070579949,61.77594839345805 zM46.5178579445904,61.77594839345805 C45.460882415318366,60.76129523727822 47.392125987414516,59.094489519842895 48.296729172447854,60.15590369149821 C49.214525032272526,61.262262308199055 47.492200872755426,62.8320488133554 46.5178579445904,61.77594839345805 zM42.73946721302376,61.71797675913196 C41.930017655431904,60.6610885292737 43.79644200745131,59.27179736850381 44.57984203968766,60.27935419237757 C45.430364296669076,61.40093423415958 43.53210645320154,62.876308173418565 42.73946721302376,61.71797675913196 zM39.140813723850876,61.77594839345805 C38.083838929423656,60.76129523727822 40.015083236364234,59.094489519842895 40.919687156242496,60.15590369149821 C41.83748081153306,61.262262308199055 40.11515738686044,62.8320488133554 39.140813723850876,61.77594839345805 zM35.362740445383885,61.71886880473771 C34.435257122083385,60.47143782098293 36.94366643797742,59.110087854961634 37.361873420550275,60.674972263612645 C37.671067596347804,61.72222700520889 35.99657156758935,62.63417104263975 35.362740445383885,61.71886880473771 zM52.465327082231994,64.49168946338851 C51.5640755258806,63.53051598962024 53.167065243791725,61.851368167886406 54.12885260790081,62.7262194233184 C55.316600443377496,63.59774344683815 53.742813471315216,65.61704087155589 52.65235251872032,64.68511078273407 C52.590851124449195,64.61980337625842 52.52783080527423,64.55600285460922 52.465327082231994,64.49168946338851 zM49.73015631376794,66.8751658279336 C48.970418295027535,65.76126523378902 50.945137510119196,64.53868991870895 51.658464179531464,65.5832723001448 C52.588950080072756,66.69288639233768 50.7200757543582,68.20470277382948 49.85947950535699,67.09618466654176 L49.73015631376794,66.8751658279336 zM47.28361434502511,69.83945376530481 C46.46279232405162,69.0676235802173 47.59027477478184,67.85200561658614 48.483805313250386,68.05876154482458 C49.84385449315282,68.41941082410268 48.986794318964236,70.6614061876637 47.73932708868004,70.2359283816008 C47.546033423149964,70.16766989792096 47.389191015926535,70.01600703855668 47.28361434502511,69.83945376530481 z" style="color: rgb(0, 0, 0);" class="" id="svg_24" transform="rotate(-1.2182902097702026 46.12448883056675,61.01132583618157) "/><path fill="#ffffff" stroke="#000000" stroke-dashoffset="" fill-rule="nonzero" marker-start="" marker-mid="" marker-end="" d="M104.83127240232204,85.23188107196563 C103.85734592433437,84.16827266450917 105.82321351846849,82.36841770314325 106.70694217609258,83.59445545433795 C107.46125548597996,84.6571038364234 105.7845594678289,86.00816921908267 104.83127240232204,85.23188107196563 zM107.439144689216,87.65252046426761 C106.64327912463818,86.48150553618913 108.82097695892395,85.23037267647683 109.5098627647481,86.40011940424279 C110.32756418569977,87.62331106920652 108.11789924381901,89.02028092228275 107.439144689216,87.65252046426761 zM110.40802428215875,90.58129199489565 C109.41373559807164,89.90822734676104 110.40185474067096,88.35568504240925 111.43140301905152,88.49415076307602 C112.86150545505518,88.71242699576655 112.47929450446162,91.09562917525301 111.08448187598026,90.97879461632937 C110.81372148679401,90.94739249612749 110.57249452955773,90.79363585995122 110.40802428215875,90.58129199489565 zM112.89138633914462,93.16727404160235 C112.05988427023573,92.11007688147205 113.97729211005844,90.72157504132551 114.78333651169356,91.72823981959448 C115.66005796603878,92.84803803615878 113.70342655619748,94.32611832546198 112.89138633914462,93.16727404160235 zM108.06906333479901,93.22524567592845 C107.14469259602686,92.35022296041882 108.50151737558156,90.93638732723963 109.5223249666335,91.30543739501172 C111.00556492022417,91.78021261717967 109.90282358243797,94.06289915838778 108.57911552386531,93.54431022129353 C108.39702492095546,93.45805598272537 108.23396109939625,93.3394056087007 108.06906333479901,93.22524567592845 zM104.13729566730814,93.22524567592845 C103.05085436690024,92.21059251974862 105.03593606440899,90.54378680231329 105.96575726980399,91.6052009739686 C106.90913892798073,92.71155959066945 105.13880078128926,94.2813460958258 104.13729566730814,93.22524567592845 zM100.2535730775528,93.16727404160235 C99.42155813907038,92.1103858117441 101.34001362263064,90.72109465097421 102.14525284169622,91.72865147484796 C103.01948548125142,92.85023151662998 101.06830907001819,94.32560545588896 100.2535730775528,93.16727404160235 zM96.5545983442521,93.22524567592845 C95.4681577991746,92.21059251974862 97.45324025201336,90.54378680231329 98.38306221273888,91.6052009739686 C99.32644160492475,92.71155959066945 97.55610421356334,94.2813460958258 96.5545983442521,93.22524567592845 zM92.67120205737592,93.1681660872081 C91.71786287404854,91.92073510345332 94.29620021833136,90.55938513743203 94.72606574066663,92.12426954608304 C95.04387945832514,93.17152428767929 93.32270276820333,94.08346832511015 92.67120205737592,93.1681660872081 zM110.2505650146935,95.94098674585891 C109.32418887280551,94.97981327209064 110.97186583924133,93.3006654503568 111.96046537219195,94.1755167057888 C113.18132457582999,95.04704072930855 111.56366445301717,97.06633815402628 110.44280424143102,96.13440806520447 C110.37958834577557,96.06910065872881 110.31481118147951,96.00530013707962 110.2505650146935,95.94098674585891 zM107.439144689216,98.324463110404 C106.65822711999078,97.21056251625942 108.68799645009273,95.98798720117935 109.42120884041708,97.0325695826152 C110.37763430514997,98.14218367480808 108.45666054890165,99.65400005629988 107.57207308022583,98.54548194901216 L107.439144689216,98.324463110404 zM104.92439939529788,101.28875104777521 C104.08069495827647,100.5169208626877 105.2396087325642,99.30130289905654 106.15804861436214,99.50805882729497 C107.55601248269272,99.86870810657308 106.6750596655404,102.1107034701341 105.39281624329237,101.6852256640712 C105.19413404533861,101.61696718039136 105.03291927343156,101.46530432102708 104.92439939529788,101.28875104777521 z" style="color: rgb(0, 0, 0);" class="" id="svg_23" transform="rotate(-44.257869720458984 103.73296356201173,92.46060180664065) "/><image id="svg_3" x="19" y="6" width="0" height="1" xlink:href="logo/vector_paint_icon256.png" style="color: rgb(0, 0, 0);"/></g></svg>